<mxfile host="Electron" agent="Mozilla/5.0 (Windows NT 10.0; Win64; x64) AppleWebKit/537.36 (KHTML, like Gecko) draw.io/28.0.6 Chrome/138.0.7204.100 Electron/37.2.3 Safari/537.36" version="28.0.6" pages="2">
  <diagram name="Administrador" id="QA9-i7ZwQHiFCN5YYOo-">
    <mxGraphModel dx="1426" dy="841" grid="1" gridSize="10" guides="1" tooltips="1" connect="1" arrows="1" fold="1" page="1" pageScale="1" pageWidth="827" pageHeight="1169" math="0" shadow="0">
      <root>
        <mxCell id="0" />
        <mxCell id="1" parent="0" />
        <mxCell id="aqdknIEBvSqLY9nZXO6M-1" value="" style="rounded=0;whiteSpace=wrap;html=1;" parent="1" vertex="1">
          <mxGeometry x="250" y="70" width="990" height="930" as="geometry" />
        </mxCell>
        <mxCell id="aqdknIEBvSqLY9nZXO6M-17" style="edgeStyle=orthogonalEdgeStyle;rounded=0;orthogonalLoop=1;jettySize=auto;html=1;entryX=0;entryY=0.5;entryDx=0;entryDy=0;" parent="1" source="aqdknIEBvSqLY9nZXO6M-2" target="aqdknIEBvSqLY9nZXO6M-5" edge="1">
          <mxGeometry relative="1" as="geometry">
            <Array as="points">
              <mxPoint x="280" y="525" />
              <mxPoint x="280" y="140" />
            </Array>
          </mxGeometry>
        </mxCell>
        <mxCell id="aqdknIEBvSqLY9nZXO6M-19" style="edgeStyle=orthogonalEdgeStyle;rounded=0;orthogonalLoop=1;jettySize=auto;html=1;entryX=0;entryY=0.5;entryDx=0;entryDy=0;" parent="1" source="aqdknIEBvSqLY9nZXO6M-2" target="aqdknIEBvSqLY9nZXO6M-10" edge="1">
          <mxGeometry relative="1" as="geometry" />
        </mxCell>
        <mxCell id="aqdknIEBvSqLY9nZXO6M-20" style="edgeStyle=orthogonalEdgeStyle;rounded=0;orthogonalLoop=1;jettySize=auto;html=1;entryX=0;entryY=0.5;entryDx=0;entryDy=0;" parent="1" source="aqdknIEBvSqLY9nZXO6M-2" target="aqdknIEBvSqLY9nZXO6M-11" edge="1">
          <mxGeometry relative="1" as="geometry" />
        </mxCell>
        <mxCell id="aqdknIEBvSqLY9nZXO6M-21" style="edgeStyle=orthogonalEdgeStyle;rounded=0;orthogonalLoop=1;jettySize=auto;html=1;" parent="1" source="aqdknIEBvSqLY9nZXO6M-2" target="aqdknIEBvSqLY9nZXO6M-12" edge="1">
          <mxGeometry relative="1" as="geometry" />
        </mxCell>
        <mxCell id="aqdknIEBvSqLY9nZXO6M-22" style="edgeStyle=orthogonalEdgeStyle;rounded=0;orthogonalLoop=1;jettySize=auto;html=1;" parent="1" source="aqdknIEBvSqLY9nZXO6M-2" target="aqdknIEBvSqLY9nZXO6M-13" edge="1">
          <mxGeometry relative="1" as="geometry" />
        </mxCell>
        <mxCell id="aqdknIEBvSqLY9nZXO6M-23" style="edgeStyle=orthogonalEdgeStyle;rounded=0;orthogonalLoop=1;jettySize=auto;html=1;entryX=0;entryY=0.5;entryDx=0;entryDy=0;" parent="1" source="aqdknIEBvSqLY9nZXO6M-2" target="aqdknIEBvSqLY9nZXO6M-14" edge="1">
          <mxGeometry relative="1" as="geometry" />
        </mxCell>
        <mxCell id="aqdknIEBvSqLY9nZXO6M-24" style="edgeStyle=orthogonalEdgeStyle;rounded=0;orthogonalLoop=1;jettySize=auto;html=1;entryX=0;entryY=0.5;entryDx=0;entryDy=0;" parent="1" source="aqdknIEBvSqLY9nZXO6M-2" target="aqdknIEBvSqLY9nZXO6M-15" edge="1">
          <mxGeometry relative="1" as="geometry" />
        </mxCell>
        <mxCell id="aqdknIEBvSqLY9nZXO6M-26" style="edgeStyle=orthogonalEdgeStyle;rounded=0;orthogonalLoop=1;jettySize=auto;html=1;entryX=0;entryY=0.5;entryDx=0;entryDy=0;" parent="1" source="aqdknIEBvSqLY9nZXO6M-2" target="aqdknIEBvSqLY9nZXO6M-16" edge="1">
          <mxGeometry relative="1" as="geometry" />
        </mxCell>
        <mxCell id="aqdknIEBvSqLY9nZXO6M-2" value="Administrador" style="shape=umlActor;verticalLabelPosition=bottom;verticalAlign=top;html=1;outlineConnect=0;" parent="1" vertex="1">
          <mxGeometry x="100" y="465" width="70" height="120" as="geometry" />
        </mxCell>
        <mxCell id="aqdknIEBvSqLY9nZXO6M-5" value="CU 000&lt;div&gt;Registrarse&lt;/div&gt;" style="ellipse;whiteSpace=wrap;html=1;" parent="1" vertex="1">
          <mxGeometry x="390" y="100" width="120" height="80" as="geometry" />
        </mxCell>
        <mxCell id="aqdknIEBvSqLY9nZXO6M-6" value="CU 001&lt;div&gt;Iniciar sesion&lt;/div&gt;" style="ellipse;whiteSpace=wrap;html=1;" parent="1" vertex="1">
          <mxGeometry x="900" y="465" width="120" height="80" as="geometry" />
        </mxCell>
        <mxCell id="aqdknIEBvSqLY9nZXO6M-10" value="CU 002&lt;div&gt;Crear deposito&lt;span style=&quot;color: rgba(0, 0, 0, 0); font-family: monospace; font-size: 0px; text-align: start; text-wrap-mode: nowrap; background-color: transparent;&quot;&gt;%3CmxGraphModel%3E%3Croot%3E%3CmxCell%20id%3D%220%22%2F%3E%3CmxCell%20id%3D%221%22%20parent%3D%220%22%2F%3E%3CmxCell%20id%3D%222%22%20value%3D%22CU%20004%26lt%3Bdiv%26gt%3BEditar%20usuario%26lt%3B%2Fdiv%26gt%3B%22%20style%3D%22ellipse%3BwhiteSpace%3Dwrap%3Bhtml%3D1%3B%22%20vertex%3D%221%22%20parent%3D%221%22%3E%3CmxGeometry%20x%3D%22570%22%20y%3D%22320%22%20width%3D%22120%22%20height%3D%2280%22%20as%3D%22geometry%22%2F%3E%3C%2FmxCell%3E%3C%2Froot%3E%3C%2FmxGraphModel%3E&lt;/span&gt;&lt;/div&gt;" style="ellipse;whiteSpace=wrap;html=1;" parent="1" vertex="1">
          <mxGeometry x="390" y="240" width="120" height="80" as="geometry" />
        </mxCell>
        <mxCell id="aqdknIEBvSqLY9nZXO6M-11" value="CU 003&lt;div&gt;Eliminar deposito&lt;/div&gt;" style="ellipse;whiteSpace=wrap;html=1;" parent="1" vertex="1">
          <mxGeometry x="390" y="330" width="120" height="80" as="geometry" />
        </mxCell>
        <mxCell id="aqdknIEBvSqLY9nZXO6M-12" value="CU 004&lt;div&gt;Editar deposito&lt;/div&gt;" style="ellipse;whiteSpace=wrap;html=1;" parent="1" vertex="1">
          <mxGeometry x="390" y="420" width="120" height="80" as="geometry" />
        </mxCell>
        <mxCell id="aqdknIEBvSqLY9nZXO6M-13" value="CU 005&lt;div&gt;Crear producto&lt;/div&gt;" style="ellipse;whiteSpace=wrap;html=1;" parent="1" vertex="1">
          <mxGeometry x="390" y="560" width="120" height="80" as="geometry" />
        </mxCell>
        <mxCell id="aqdknIEBvSqLY9nZXO6M-14" value="CU 006&lt;div&gt;Eliminar producto&lt;/div&gt;" style="ellipse;whiteSpace=wrap;html=1;" parent="1" vertex="1">
          <mxGeometry x="390" y="657.5" width="120" height="80" as="geometry" />
        </mxCell>
        <mxCell id="aqdknIEBvSqLY9nZXO6M-15" value="CU 007&lt;div&gt;Editar producto&lt;/div&gt;" style="ellipse;whiteSpace=wrap;html=1;" parent="1" vertex="1">
          <mxGeometry x="390" y="760" width="120" height="80" as="geometry" />
        </mxCell>
        <mxCell id="aqdknIEBvSqLY9nZXO6M-16" value="CU 008&lt;div&gt;Consultar stock&lt;/div&gt;" style="ellipse;whiteSpace=wrap;html=1;" parent="1" vertex="1">
          <mxGeometry x="390" y="890" width="120" height="80" as="geometry" />
        </mxCell>
        <mxCell id="aqdknIEBvSqLY9nZXO6M-43" style="edgeStyle=orthogonalEdgeStyle;rounded=0;orthogonalLoop=1;jettySize=auto;html=1;exitX=0.5;exitY=1;exitDx=0;exitDy=0;" parent="1" source="aqdknIEBvSqLY9nZXO6M-1" target="aqdknIEBvSqLY9nZXO6M-1" edge="1">
          <mxGeometry relative="1" as="geometry" />
        </mxCell>
        <mxCell id="aqdknIEBvSqLY9nZXO6M-45" value="INCLUDE" style="endArrow=block;endSize=16;endFill=0;html=1;rounded=0;" parent="1" source="aqdknIEBvSqLY9nZXO6M-10" target="aqdknIEBvSqLY9nZXO6M-6" edge="1">
          <mxGeometry width="160" relative="1" as="geometry">
            <mxPoint x="710" y="350" as="sourcePoint" />
            <mxPoint x="1138" y="657" as="targetPoint" />
          </mxGeometry>
        </mxCell>
        <mxCell id="aqdknIEBvSqLY9nZXO6M-46" value="INCLUDE" style="endArrow=block;endSize=16;endFill=0;html=1;rounded=0;" parent="1" source="aqdknIEBvSqLY9nZXO6M-11" target="aqdknIEBvSqLY9nZXO6M-6" edge="1">
          <mxGeometry width="160" relative="1" as="geometry">
            <mxPoint x="780" y="490" as="sourcePoint" />
            <mxPoint x="1190" y="671" as="targetPoint" />
          </mxGeometry>
        </mxCell>
        <mxCell id="aqdknIEBvSqLY9nZXO6M-47" value="INCLUDE" style="endArrow=block;endSize=16;endFill=0;html=1;rounded=0;" parent="1" source="aqdknIEBvSqLY9nZXO6M-12" target="aqdknIEBvSqLY9nZXO6M-6" edge="1">
          <mxGeometry width="160" relative="1" as="geometry">
            <mxPoint x="820" y="490" as="sourcePoint" />
            <mxPoint x="1218" y="595" as="targetPoint" />
          </mxGeometry>
        </mxCell>
        <mxCell id="aqdknIEBvSqLY9nZXO6M-48" value="INCLUDE" style="endArrow=block;endSize=16;endFill=0;html=1;rounded=0;" parent="1" source="aqdknIEBvSqLY9nZXO6M-13" target="aqdknIEBvSqLY9nZXO6M-6" edge="1">
          <mxGeometry width="160" relative="1" as="geometry">
            <mxPoint x="860" y="550" as="sourcePoint" />
            <mxPoint x="1252" y="585" as="targetPoint" />
          </mxGeometry>
        </mxCell>
        <mxCell id="aqdknIEBvSqLY9nZXO6M-49" value="INCLUDE" style="endArrow=block;endSize=16;endFill=0;html=1;rounded=0;" parent="1" source="aqdknIEBvSqLY9nZXO6M-14" target="aqdknIEBvSqLY9nZXO6M-6" edge="1">
          <mxGeometry width="160" relative="1" as="geometry">
            <mxPoint x="950" y="673" as="sourcePoint" />
            <mxPoint x="1344" y="600" as="targetPoint" />
          </mxGeometry>
        </mxCell>
        <mxCell id="aqdknIEBvSqLY9nZXO6M-50" value="INCLUDE" style="endArrow=block;endSize=16;endFill=0;html=1;rounded=0;" parent="1" source="aqdknIEBvSqLY9nZXO6M-15" target="aqdknIEBvSqLY9nZXO6M-6" edge="1">
          <mxGeometry width="160" relative="1" as="geometry">
            <mxPoint x="1210" y="683" as="sourcePoint" />
            <mxPoint x="1616" y="530" as="targetPoint" />
          </mxGeometry>
        </mxCell>
        <mxCell id="aqdknIEBvSqLY9nZXO6M-51" value="INCLUDE" style="endArrow=block;endSize=16;endFill=0;html=1;rounded=0;" parent="1" source="aqdknIEBvSqLY9nZXO6M-16" target="aqdknIEBvSqLY9nZXO6M-6" edge="1">
          <mxGeometry width="160" relative="1" as="geometry">
            <mxPoint x="1330" y="883" as="sourcePoint" />
            <mxPoint x="1750" y="640" as="targetPoint" />
          </mxGeometry>
        </mxCell>
        <mxCell id="AXESNBooSnAnvh6Mfhj4-1" value="CU 012&lt;div&gt;Registrar ingreso&lt;/div&gt;&lt;div&gt;de usuario&lt;/div&gt;" style="ellipse;whiteSpace=wrap;html=1;" parent="1" vertex="1">
          <mxGeometry x="1083" y="690" width="120" height="80" as="geometry" />
        </mxCell>
        <mxCell id="AXESNBooSnAnvh6Mfhj4-2" value="Extends" style="endArrow=block;endSize=16;endFill=0;html=1;rounded=0;" parent="1" source="AXESNBooSnAnvh6Mfhj4-1" target="aqdknIEBvSqLY9nZXO6M-6" edge="1">
          <mxGeometry width="160" relative="1" as="geometry">
            <mxPoint x="1343" y="904" as="sourcePoint" />
            <mxPoint x="1000" y="570" as="targetPoint" />
          </mxGeometry>
        </mxCell>
      </root>
    </mxGraphModel>
  </diagram>
  <diagram id="CJuefDiAsY62oQ9KvsPk" name="Operador">
    <mxGraphModel dx="1426" dy="841" grid="1" gridSize="10" guides="1" tooltips="1" connect="1" arrows="1" fold="1" page="1" pageScale="1" pageWidth="827" pageHeight="1169" math="0" shadow="0">
      <root>
        <mxCell id="0" />
        <mxCell id="1" parent="0" />
        <mxCell id="oNkboylMHdBMqohZwHdY-1" value="" style="rounded=0;whiteSpace=wrap;html=1;" parent="1" vertex="1">
          <mxGeometry x="430" y="275" width="990" height="725" as="geometry" />
        </mxCell>
        <mxCell id="oNkboylMHdBMqohZwHdY-9" style="edgeStyle=orthogonalEdgeStyle;rounded=0;orthogonalLoop=1;jettySize=auto;html=1;entryX=0;entryY=0.5;entryDx=0;entryDy=0;" parent="1" source="oNkboylMHdBMqohZwHdY-10" target="oNkboylMHdBMqohZwHdY-19" edge="1">
          <mxGeometry relative="1" as="geometry" />
        </mxCell>
        <mxCell id="oNkboylMHdBMqohZwHdY-30" style="edgeStyle=orthogonalEdgeStyle;rounded=0;orthogonalLoop=1;jettySize=auto;html=1;entryX=0;entryY=0.5;entryDx=0;entryDy=0;" parent="1" source="oNkboylMHdBMqohZwHdY-10" target="oNkboylMHdBMqohZwHdY-11" edge="1">
          <mxGeometry relative="1" as="geometry" />
        </mxCell>
        <mxCell id="oNkboylMHdBMqohZwHdY-31" style="edgeStyle=orthogonalEdgeStyle;rounded=0;orthogonalLoop=1;jettySize=auto;html=1;entryX=0;entryY=0.5;entryDx=0;entryDy=0;" parent="1" source="oNkboylMHdBMqohZwHdY-10" target="oNkboylMHdBMqohZwHdY-13" edge="1">
          <mxGeometry relative="1" as="geometry" />
        </mxCell>
        <mxCell id="dv5ZMhYcf8WgFpH2DH6m-2" style="edgeStyle=orthogonalEdgeStyle;rounded=0;orthogonalLoop=1;jettySize=auto;html=1;entryX=0;entryY=0.5;entryDx=0;entryDy=0;" edge="1" parent="1" source="oNkboylMHdBMqohZwHdY-10" target="dv5ZMhYcf8WgFpH2DH6m-1">
          <mxGeometry relative="1" as="geometry">
            <Array as="points">
              <mxPoint x="490" y="560" />
              <mxPoint x="490" y="830" />
            </Array>
          </mxGeometry>
        </mxCell>
        <mxCell id="oNkboylMHdBMqohZwHdY-10" value="Operador" style="shape=umlActor;verticalLabelPosition=bottom;verticalAlign=top;html=1;outlineConnect=0;" parent="1" vertex="1">
          <mxGeometry x="310" y="500" width="70" height="120" as="geometry" />
        </mxCell>
        <mxCell id="oNkboylMHdBMqohZwHdY-11" value="CU 009&lt;div&gt;Registrar entrada&lt;/div&gt;" style="ellipse;whiteSpace=wrap;html=1;" parent="1" vertex="1">
          <mxGeometry x="600" y="480" width="120" height="80" as="geometry" />
        </mxCell>
        <mxCell id="oNkboylMHdBMqohZwHdY-12" value="CU 001&lt;div&gt;Iniciar sesion&lt;/div&gt;" style="ellipse;whiteSpace=wrap;html=1;" parent="1" vertex="1">
          <mxGeometry x="1080" y="490" width="120" height="80" as="geometry" />
        </mxCell>
        <mxCell id="oNkboylMHdBMqohZwHdY-13" value="&lt;font style=&quot;color: rgb(255, 255, 255);&quot;&gt;CU 010&lt;/font&gt;&lt;div style=&quot;text-align: center;&quot;&gt;&lt;span style=&quot;text-align: start; background-color: transparent; color: rgba(0, 0, 0, 0);&quot;&gt;&lt;font style=&quot;color: rgb(255, 255, 255);&quot;&gt;Registrar salid&lt;/font&gt;&lt;/span&gt;&lt;span style=&quot;text-align: start; background-color: transparent; color: rgb(255, 255, 255);&quot;&gt;a&lt;/span&gt;&lt;span style=&quot;color: rgb(255, 255, 255); font-family: monospace; font-size: 0px; text-align: start; text-wrap-mode: nowrap; background-color: transparent;&quot;&gt;%3CmxGraphModel%3E%3Croot%3E%3CmxCell%20id%3D%220%22%2F%3E%3CmxCell%20id%3D%221%22%20parent%3D%220%22%2F%3E%3CmxCell%20id%3D%222%22%20value%3D%22CU%20004%26lt%3Bdiv%26gt%3BEditar%20usuario%26lt%3B%2Fdiv%26gt%3B%22%20style%3D%22ellipse%3BwhiteSpace%3Dwrap%3Bhtml%3D1%3B%22%20vertex%3D%221%22%20parent%3D%221%22%3E%3CmxGeometry%20x%3D%22570%22%20y%3D%22320%22%20width%3D%22120%22%20height%3D%2280%22%20as%3D%22geometry%22%2F%3E%3C%2FmxCell%3E%3C%2Froot%3E%3C%2FmxGraphModel%3E&lt;/span&gt;&lt;/div&gt;" style="ellipse;whiteSpace=wrap;html=1;" parent="1" vertex="1">
          <mxGeometry x="600" y="610" width="120" height="80" as="geometry" />
        </mxCell>
        <mxCell id="oNkboylMHdBMqohZwHdY-19" value="CU 008&lt;div&gt;Consultar stock&lt;/div&gt;" style="ellipse;whiteSpace=wrap;html=1;" parent="1" vertex="1">
          <mxGeometry x="600" y="360" width="120" height="80" as="geometry" />
        </mxCell>
        <mxCell id="oNkboylMHdBMqohZwHdY-20" style="edgeStyle=orthogonalEdgeStyle;rounded=0;orthogonalLoop=1;jettySize=auto;html=1;exitX=0.5;exitY=1;exitDx=0;exitDy=0;" parent="1" source="oNkboylMHdBMqohZwHdY-1" target="oNkboylMHdBMqohZwHdY-1" edge="1">
          <mxGeometry relative="1" as="geometry" />
        </mxCell>
        <mxCell id="oNkboylMHdBMqohZwHdY-21" value="INCLUDE" style="endArrow=block;endSize=16;endFill=0;html=1;rounded=0;" parent="1" source="oNkboylMHdBMqohZwHdY-11" target="oNkboylMHdBMqohZwHdY-12" edge="1">
          <mxGeometry width="160" relative="1" as="geometry">
            <mxPoint x="860" y="450" as="sourcePoint" />
            <mxPoint x="1020" y="450" as="targetPoint" />
          </mxGeometry>
        </mxCell>
        <mxCell id="oNkboylMHdBMqohZwHdY-22" value="INCLUDE" style="endArrow=block;endSize=16;endFill=0;html=1;rounded=0;" parent="1" source="oNkboylMHdBMqohZwHdY-13" target="oNkboylMHdBMqohZwHdY-12" edge="1">
          <mxGeometry width="160" relative="1" as="geometry">
            <mxPoint x="940" y="530" as="sourcePoint" />
            <mxPoint x="1368" y="837" as="targetPoint" />
          </mxGeometry>
        </mxCell>
        <mxCell id="oNkboylMHdBMqohZwHdY-28" value="INCLUDE" style="endArrow=block;endSize=16;endFill=0;html=1;rounded=0;" parent="1" source="oNkboylMHdBMqohZwHdY-19" target="oNkboylMHdBMqohZwHdY-12" edge="1">
          <mxGeometry width="160" relative="1" as="geometry">
            <mxPoint x="1560" y="1063" as="sourcePoint" />
            <mxPoint x="1980" y="820" as="targetPoint" />
          </mxGeometry>
        </mxCell>
        <mxCell id="SgUGAWNTu0obC_qjiRUI-1" value="CU 012&lt;div&gt;Registrar ingreso&lt;/div&gt;&lt;div&gt;de usuario&lt;/div&gt;" style="ellipse;whiteSpace=wrap;html=1;" parent="1" vertex="1">
          <mxGeometry x="1250" y="710" width="120" height="80" as="geometry" />
        </mxCell>
        <mxCell id="SgUGAWNTu0obC_qjiRUI-4" value="Extends" style="endArrow=block;endSize=16;endFill=0;html=1;rounded=0;" parent="1" source="SgUGAWNTu0obC_qjiRUI-1" target="oNkboylMHdBMqohZwHdY-12" edge="1">
          <mxGeometry width="160" relative="1" as="geometry">
            <mxPoint x="1510" y="900" as="sourcePoint" />
            <mxPoint x="940" y="660" as="targetPoint" />
          </mxGeometry>
        </mxCell>
        <mxCell id="owG_TANh3GzESoirfNDO-1" value="CU 011&lt;div&gt;Generar alerta&lt;/div&gt;&lt;div&gt;por stock bajo&lt;/div&gt;" style="ellipse;whiteSpace=wrap;html=1;" parent="1" vertex="1">
          <mxGeometry x="850" y="800" width="120" height="80" as="geometry" />
        </mxCell>
        <mxCell id="owG_TANh3GzESoirfNDO-2" value="Extends" style="endArrow=block;endSize=16;endFill=0;html=1;rounded=0;" parent="1" source="owG_TANh3GzESoirfNDO-1" target="oNkboylMHdBMqohZwHdY-13" edge="1">
          <mxGeometry width="160" relative="1" as="geometry">
            <mxPoint x="780" y="760" as="sourcePoint" />
            <mxPoint x="940" y="760" as="targetPoint" />
          </mxGeometry>
        </mxCell>
        <mxCell id="dv5ZMhYcf8WgFpH2DH6m-1" value="CU 000&lt;div&gt;Registrarse&lt;/div&gt;" style="ellipse;whiteSpace=wrap;html=1;" vertex="1" parent="1">
          <mxGeometry x="550" y="790" width="120" height="80" as="geometry" />
        </mxCell>
      </root>
    </mxGraphModel>
  </diagram>
</mxfile>
